<?xml version="1.0" standalone="no"?><!DOCTYPE svg PUBLIC "-//W3C//DTD SVG 1.1//EN" "http://www.w3.org/Graphics/SVG/1.1/DTD/svg11.dtd"><svg t="1752032417129" class="icon" viewBox="0 0 1024 1024" version="1.1" xmlns="http://www.w3.org/2000/svg" p-id="7096" xmlns:xlink="http://www.w3.org/1999/xlink" width="32" height="32"><path d="M550.4 532.906667a627.2 627.2 0 0 0 194.56-39.68l101.973333 153.173333a38.4 38.4 0 0 0 64-42.666667l-95.146666-142.933333a651.52 651.52 0 0 0 180.053333-140.8l-61.866667-55.466667C711.68 512 341.333333 512 88.32 262.826667L29.866667 321.706667A746.24 746.24 0 0 0 213.333333 455.68l-100.266666 148.053333a38.4 38.4 0 0 0 64 42.666667l105.386666-158.293333a667.733333 667.733333 0 0 0 191.146667 42.666666v206.08a38.4 38.4 0 1 0 76.8 0z" fill="#070707" p-id="7097"></path></svg>