<?xml version="1.0" standalone="no"?><!DOCTYPE svg PUBLIC "-//W3C//DTD SVG 1.1//EN" "http://www.w3.org/Graphics/SVG/1.1/DTD/svg11.dtd"><svg t="1752910160580" class="icon" viewBox="0 0 1024 1024" version="1.1" xmlns="http://www.w3.org/2000/svg" p-id="8730" xmlns:xlink="http://www.w3.org/1999/xlink" width="32" height="32"><path d="M512 64c247.4 0 448 200.6 448 448S759.4 960 512 960 64 759.4 64 512 264.6 64 512 64z m0 64c-51.8 0-102.1 10.2-149.4 30.2-45.7 19.3-86.8 47-122.1 82.3s-63 76.4-82.3 122.1C138.1 409.9 128 460.2 128 512c0 51.8 10.2 102.1 30.2 149.4 19.3 45.7 47 86.8 82.3 122.1s76.4 63 122.1 82.3C409.9 885.9 460.2 896 512 896c51.8 0 102.1-10.2 149.4-30.2 45.7-19.3 86.8-47 122.1-82.3s63-76.3 82.3-122.1a379.704 379.704 0 0 0 8.206-21.022L733.122 491.753c-12.702-12.702-33.344-12.702-46.046 0L528.296 660.06c-19.054 17.466-44.459 28.58-69.864 28.58-25.404 0-50.81-11.114-69.863-30.168l-38.107-39.695c-12.703-12.702-33.344-12.702-46.046 0l-43.28 46.072c-1.852 2.246-3.61 3.47-5.27 3.674-1.663 0.204-3.658-0.561-5.985-2.295l-36.532-34.012c-1.026-1.36-1.53-2.798-1.51-4.317 0.02-1.518 0.56-2.913 1.62-4.185l44.91-47.807c17.466-19.054 42.871-30.169 68.276-30.169 25.405 0 50.81 11.115 69.863 30.169l38.107 39.695c12.703 12.702 33.344 12.702 46.047 0l158.78-166.72c17.466-19.053 41.857-34.972 68.85-34.972 26.992 0 51.823 15.919 70.877 34.973l112.82 119.019C894.662 549.515 896 530.857 896 512c0-51.8-10.2-102.1-30.2-149.4-19.3-45.7-47-86.8-82.3-122.1s-76.4-63-122.1-82.3C614.1 138.1 563.8 128 512 128zM374.714 309c35.347 0 64 28.654 64 64 0 35.346-28.653 64-64 64-35.346 0-64-28.654-64-64 0-35.346 28.654-64 64-64z" fill="#222222" p-id="8731"></path></svg>