<?xml version="1.0" standalone="no"?><!DOCTYPE svg PUBLIC "-//W3C//DTD SVG 1.1//EN" "http://www.w3.org/Graphics/SVG/1.1/DTD/svg11.dtd"><svg t="1752910176837" class="icon" viewBox="0 0 1024 1024" version="1.1" xmlns="http://www.w3.org/2000/svg" p-id="8892" xmlns:xlink="http://www.w3.org/1999/xlink" width="32" height="32"><path d="M896 468H556V128c0-8.8-7.2-16-16-16h-56c-8.8 0-16 7.2-16 16v340H128c-8.8 0-16 7.2-16 16v56c0 8.8 7.2 16 16 16h340v340c0 8.8 7.2 16 16 16h56c8.8 0 16-7.2 16-16V556h340c8.8 0 16-7.2 16-16v-56c0-8.8-7.2-16-16-16z" p-id="8893"></path></svg>