<svg width="20" height="20" viewBox="0 0 20 20" fill="none" xmlns="http://www.w3.org/2000/svg">
  <path d="M10 12.5C11.3807 12.5 12.5 11.3807 12.5 10C12.5 8.61929 11.3807 7.5 10 7.5C8.61929 7.5 7.5 8.61929 7.5 10C7.5 11.3807 8.61929 12.5 10 12.5Z" stroke="currentColor" stroke-width="1.5" stroke-linecap="round" stroke-linejoin="round"/>
  <path d="M16.1667 12.5C16.0516 12.7579 16.0156 13.0426 16.0634 13.3199C16.1112 13.5972 16.2407 13.8558 16.4375 14.0625L16.4792 14.1042C16.6364 14.2612 16.7607 14.4485 16.8451 14.6549C16.9295 14.8614 16.9723 15.0831 16.9708 15.3068C16.9694 15.5305 16.9238 15.7516 16.8368 15.9569C16.7498 16.1622 16.6232 16.3478 16.4639 16.5028C16.3047 16.6578 16.1158 16.7791 15.9088 16.8604C15.7018 16.9417 15.4804 16.9813 15.2567 16.9767C15.033 16.9721 14.8133 16.9234 14.6094 16.8333C14.4055 16.7433 14.2214 16.6137 14.0667 16.4521L14.025 16.4104C13.8183 16.2136 13.5597 16.0841 13.2824 16.0363C13.0051 15.9885 12.7204 16.0245 12.4625 16.1396C12.2099 16.2496 11.9943 16.4298 11.8398 16.6587C11.6854 16.8876 11.5987 17.1559 11.5896 17.4313V17.5C11.5896 17.9421 11.4139 18.3661 11.1013 18.6787C10.7887 18.9913 10.3647 19.167 9.92258 19.167C9.48047 19.167 9.05649 18.9913 8.74389 18.6787C8.43129 18.3661 8.25558 17.9421 8.25558 17.5V17.4417C8.24117 17.1557 8.14702 16.8787 7.98458 16.6458C7.82214 16.4129 7.59842 16.2337 7.33891 16.1292C7.08101 16.0141 6.79632 15.9781 6.51901 16.0259C6.2417 16.0737 5.98309 16.2032 5.77641 16.4L5.73474 16.4417C5.58007 16.6033 5.39598 16.7329 5.19208 16.8229C4.98818 16.913 4.76847 16.9617 4.54477 16.9663C4.32107 16.9709 4.09967 16.9313 3.89267 16.85C3.68567 16.7687 3.49677 16.6474 3.33751 16.4924C3.17825 16.3374 3.05162 16.1518 2.96463 15.9465C2.87764 15.7412 2.83201 15.5201 2.83058 15.2964C2.82915 15.0727 2.87194 14.851 2.95641 14.6446C3.04088 14.4381 3.16516 14.2508 3.32224 14.0938L3.36391 14.0521C3.56074 13.8454 3.69024 13.5868 3.73807 13.3095C3.7859 13.0322 3.74991 12.7475 3.63474 12.4896C3.52474 12.237 3.34458 12.0214 3.11566 11.8669C2.88674 11.7125 2.61841 11.6258 2.34307 11.6167H2.27474C1.83263 11.6167 1.40865 11.441 1.09605 11.1284C0.783449 10.8158 0.607739 10.3918 0.607739 9.94967C0.607739 9.50756 0.783449 9.08358 1.09605 8.77098C1.40865 8.45838 1.83263 8.28267 2.27474 8.28267H2.33307C2.61907 8.26826 2.89607 8.18411 3.12891 8.04167C3.36174 7.89923 3.54091 7.70551 3.64557 7.476C3.76074 7.21809 3.79674 6.9334 3.74891 6.65609C3.70107 6.37878 3.57158 6.12017 3.37474 5.91349L3.33307 5.87183C3.17599 5.71716 3.05171 5.53307 2.96724 5.32917C2.88277 5.12527 2.83998 4.90556 2.84141 4.68186C2.84284 4.45816 2.88847 4.23676 2.97546 4.03976C3.06245 3.84276 3.18908 3.66386 3.34834 3.5146C3.5076 3.36534 3.69317 3.24871 3.89847 3.17172C4.10377 3.09473 4.32517 3.0591 4.54887 3.07053C4.77257 3.08196 4.99228 3.13683 5.19618 3.2313C5.40008 3.32577 5.58417 3.46005 5.73891 3.62683L5.78057 3.66849C5.98725 3.86533 6.24586 3.99483 6.52317 4.04266C6.80048 4.09049 7.08517 4.0545 7.34307 3.93933H7.38474C7.63733 3.82933 7.85291 3.64917 8.00733 3.42025C8.16174 3.19133 8.24841 2.923 8.25724 2.64766V2.57933C8.25724 2.13722 8.43295 1.71324 8.74555 1.40064C9.05815 1.08804 9.48213 0.912329 9.92424 0.912329C10.3664 0.912329 10.7903 1.08804 11.1029 1.40064C11.4155 1.71324 11.5912 2.13722 11.5912 2.57933V2.63766C11.6001 2.913 11.6867 3.18133 11.8411 3.41025C11.9956 3.63917 12.2111 3.81933 12.4637 3.92933C12.7216 4.0445 13.0063 4.08049 13.2836 4.03266C13.5609 3.98483 13.8195 3.85533 14.0262 3.65849L14.0679 3.61683C14.2225 3.45005 14.4066 3.31577 14.6105 3.2213C14.8144 3.12683 15.0341 3.08196 15.2578 3.07053C15.4815 3.0591 15.7029 3.09473 15.9082 3.17172C16.1135 3.24871 16.2991 3.36534 16.4584 3.5146C16.6176 3.66386 16.7443 3.84276 16.8312 4.03976C16.9182 4.23676 16.9639 4.45816 16.9653 4.68186C16.9667 4.90556 16.9239 5.12527 16.8395 5.32917C16.755 5.53307 16.6307 5.71716 16.4737 5.87183L16.432 5.91349C16.2351 6.12017 16.1056 6.37878 16.0578 6.65609C16.01 6.9334 16.046 7.21809 16.1612 7.476C16.2712 7.72858 16.4513 7.94417 16.6803 8.09858C16.9092 8.253 17.1775 8.33967 17.4529 8.34849H17.5212C17.9633 8.34849 18.3873 8.5242 18.6999 8.8368C19.0125 9.1494 19.1882 9.57338 19.1882 10.0155C19.1882 10.4576 19.0125 10.8816 18.6999 11.1942C18.3873 11.5068 17.9633 11.6825 17.5212 11.6825H17.4629C17.1875 11.6913 16.9192 11.778 16.6903 11.9324C16.4614 12.0868 16.2812 12.3024 16.1712 12.555V12.5Z" stroke="currentColor" stroke-width="1.5" stroke-linecap="round" stroke-linejoin="round"/>
</svg>