<?xml version="1.0" standalone="no"?><!DOCTYPE svg PUBLIC "-//W3C//DTD SVG 1.1//EN" "http://www.w3.org/Graphics/SVG/1.1/DTD/svg11.dtd"><svg t="1752032498444" class="icon" viewBox="0 0 1024 1024" version="1.1" xmlns="http://www.w3.org/2000/svg" p-id="9911" xmlns:xlink="http://www.w3.org/1999/xlink" width="32" height="32"><path d="M512 992c172.16 0 329.472-83.328 470.912-247.68a160 160 0 0 0 0-208.64C841.472 371.264 684.096 288 512 288 339.84 288 182.528 371.328 41.088 535.68a160 160 0 0 0 0 208.64C182.528 908.736 339.904 992 512 992z m0-64c-152 0-292.416-74.368-422.4-225.408a96 96 0 0 1 0-125.184C219.584 426.368 360 352 512 352s292.416 74.368 422.4 225.408a96 96 0 0 1 0 125.184C804.416 853.632 664 928 512 928z" fill="#5C5B5B" p-id="9912"></path><path d="M512 832a192 192 0 1 0 0-384 192 192 0 0 0 0 384z m0-64a128 128 0 1 1 0-256 128 128 0 0 1 0 256zM480 76.8v116.224a32 32 0 1 0 64 0V76.8a32 32 0 0 0-64 0zM71.296 235.328l58.112 100.672a32 32 0 1 0 55.424-32L126.72 203.328a32 32 0 0 0-55.424 32zM960.768 235.328l-58.112 100.672a32 32 0 1 1-55.424-32l58.112-100.672a32 32 0 0 1 55.424 32z" fill="#5C5B5B" p-id="9913"></path></svg>