<?xml version="1.0" standalone="no"?><!DOCTYPE svg PUBLIC "-//W3C//DTD SVG 1.1//EN" "http://www.w3.org/Graphics/SVG/1.1/DTD/svg11.dtd"><svg t="1735189883057" class="icon" viewBox="0 0 1024 1024" version="1.1" xmlns="http://www.w3.org/2000/svg" p-id="4787" xmlns:xlink="http://www.w3.org/1999/xlink" width="32" height="32"><path d="M476.5696 172.032L301.3632 310.9888h-92.16a96.5632 96.5632 0 0 0-97.28 95.5392v196.7104a96.8704 96.8704 0 0 0 97.28 95.6416h97.28L481.28 842.3424c38.7072 33.792 73.0112 19.2512 73.0112-33.4848V210.3296c0-52.736-34.304-71.68-77.9264-38.2976" fill="#333333" p-id="4788"></path><path d="M860.672 365.4656L765.1328 460.8l-95.6416-95.6416a33.792 33.792 0 0 0-47.8208 47.8208l95.6416 95.5392L621.6704 604.16a33.792 33.792 0 0 0 47.8208 47.7184l95.6416-95.5392 95.5392 95.5392A33.792 33.792 0 0 0 908.4928 604.16l-95.6416-95.6416 95.6416-95.5392a33.792 33.792 0 0 0-47.8208-47.8208z" p-id="4789"></path></svg>