<?xml version="1.0" standalone="no"?><!DOCTYPE svg PUBLIC "-//W3C//DTD SVG 1.1//EN" "http://www.w3.org/Graphics/SVG/1.1/DTD/svg11.dtd"><svg t="1735189861594" class="icon" viewBox="0 0 1024 1024" version="1.1" xmlns="http://www.w3.org/2000/svg" p-id="3803" xmlns:xlink="http://www.w3.org/1999/xlink" width="32" height="32"><path d="M476.5696 172.032L301.3632 310.9888h-92.16a96.5632 96.5632 0 0 0-97.28 95.5392v196.7104a96.8704 96.8704 0 0 0 97.28 95.6416h97.28L481.28 842.3424c38.7072 33.792 73.0112 19.2512 73.0112-33.4848V210.3296c0-52.736-34.304-71.68-77.9264-38.2976" fill="#333333" p-id="3804"></path><path d="M651.1616 675.84a33.792 33.792 0 0 1-25.088-56.4224C665.6 574.976 684.2368 532.48 680.6528 491.52c-4.9152-55.0912-49.5616-90.4192-50.0736-90.8288a33.792 33.792 0 0 1 40.96-53.6576c2.7648 2.048 68.1984 52.5312 76.1856 137.4208 5.7344 60.3136-18.3296 120.832-71.68 179.9168A33.9968 33.9968 0 0 1 651.1616 675.84z" fill="#3E3A39" p-id="3805"></path><path d="M778.24 728.064a33.1776 33.1776 0 0 1-23.04-9.1136 33.5872 33.5872 0 0 1-1.6384-47.7184c155.9552-167.1168 7.168-319.2832 0.8192-325.7344a33.792 33.792 0 1 1 47.7184-47.8208c2.048 2.048 200.9088 205.4144 0.8192 419.84A33.5872 33.5872 0 0 1 778.24 728.064z" fill="#3E3A39" p-id="3806"></path></svg>