<?xml version="1.0" standalone="no"?><!DOCTYPE svg PUBLIC "-//W3C//DTD SVG 1.1//EN" "http://www.w3.org/Graphics/SVG/1.1/DTD/svg11.dtd"><svg t="1735189823530" class="icon" viewBox="0 0 1024 1024" version="1.1" xmlns="http://www.w3.org/2000/svg" p-id="2810" xmlns:xlink="http://www.w3.org/1999/xlink" width="32" height="32"><path d="M810.666667 314.453333l48.213333-48.213333a21.333333 21.333333 0 0 0 0-29.866667l-30.293333-30.293333a21.333333 21.333333 0 0 0-30.293334 0L750.933333 256A384 384 0 0 0 597.333333 180.48V128a42.666667 42.666667 0 0 0-42.666666-42.666667h-85.333334a42.666667 42.666667 0 0 0-42.666666 42.666667v52.48A384 384 0 0 0 128 554.666667a388.693333 388.693333 0 0 0 372.906667 384A384 384 0 0 0 810.666667 314.453333zM512 853.333333a298.666667 298.666667 0 1 1 298.666667-298.666666 298.666667 298.666667 0 0 1-298.666667 298.666666z m16.213333-512h-32.426666a21.333333 21.333333 0 0 0-21.333334 21.333334v213.333333a21.333333 21.333333 0 0 0 21.333334 21.333333h32.426666a21.333333 21.333333 0 0 0 21.333334-21.333333v-213.333333a21.333333 21.333333 0 0 0-21.333334-21.333334z" p-id="2811"></path></svg>