<?xml version="1.0" standalone="no"?><!DOCTYPE svg PUBLIC "-//W3C//DTD SVG 1.1//EN" "http://www.w3.org/Graphics/SVG/1.1/DTD/svg11.dtd"><svg t="1747293313004" class="icon" viewBox="0 0 1024 1024" version="1.1" xmlns="http://www.w3.org/2000/svg" p-id="11256" xmlns:xlink="http://www.w3.org/1999/xlink" width="32" height="32"><path d="M157.034085 781.752208L19.994203 838.18016c-9.331992 3.391997-17.393985 11.45399-19.089984 21.637981-2.545998 10.179991 0.424 20.787982 7.635994 27.999976l127.27989 127.279891c7.211994 7.211994 18.245984 10.605991 28.423976 8.061993 9.759992-2.119998 18.245984-9.757992 21.213982-19.513984l56.427951-137.039882 10.605991-31.819972-58.973949-58.97395-36.483969 5.939995z" fill="#FEA832" p-id="11257"></path><path d="M220.67403 802.96419l31.819973 31.819973-10.605991 31.819972-56.427951 137.039882c-2.967997 9.757992-11.45399 17.393985-21.213982 19.513984-10.179991 2.545998-21.213982-0.849999-28.423976-8.061993l-63.639945-63.639946 148.491872-148.491872z" fill="#FE9923" p-id="11258"></path><path d="M906.757441 117.248779c50.911956 50.911956 87.821925 115.8259 115.397901 200.251828 3.393997 9.335992 2.119998 19.091984-3.819997 26.731977-5.513995 8.061993-14.425988 12.727989-24.607979 12.727989h-123.879894c-4.241996 0-8.485993 0.845999-13.153988 1.273999l-102.245912-28.423975-59.821949-59.821949-28.849975-102.671912c0.428-4.667996 1.273999-8.913992 1.273999-13.153988V30.278854c0-10.181991 4.665996-19.093984 12.727989-24.607979 7.639993-5.939995 17.395985-7.213994 26.731977-3.819997 84.421927 27.575976 149.335872 64.485945 200.247828 115.397901z" fill="#FEDB41" p-id="11259"></path><path d="M906.757441 117.248779c50.911956 50.911956 87.821925 115.8259 115.397901 200.251828 3.393997 9.335992 2.119998 19.091984-3.819997 26.731977-5.513995 8.061993-14.425988 12.727989-24.607979 12.727989h-123.879894c-4.241996 0-8.485993 0.845999-13.153988 1.273999l-102.245912-28.423975-30.123974-30.123975 182.433843-182.437843z" fill="#FFCC33" p-id="11260"></path><path d="M778.629551 245.376669c28.849975 28.849975 52.183955 63.213946 78.063933 112.855903-72.125938 5.937995-210.905819 104.47191-261.391776 154.959867l-91.641921 6.789994-92.063921 7.211994 98.853915-98.853915c50.911956-50.911956 149.389872-189.749837 155.325867-261.025776 49.637957 25.877978 84.003928 49.211958 112.853903 78.061933z" fill="#FEA832" p-id="11261"></path><path d="M778.629551 245.376669c28.849975 28.849975 52.183955 63.213946 78.063933 112.855903-72.125938 5.937995-210.905819 104.47191-261.391776 154.959867l-91.641921 6.789994 274.969764-274.605764z" fill="#FE9923" p-id="11262"></path><path d="M432.857848 590.884372c-11.72599 11.72599-30.701974 11.72599-42.425964 0l-84.851927-84.851927c-11.72599-11.72599-11.72599-30.701974 0-42.425963 11.72599-11.72599 30.701974-11.72599 42.425964 0l84.851927 84.851927c11.72599 11.72599 11.72599 30.701974 0 42.425963zM348.005921 675.738299c-11.72599 11.72599-30.701974 11.72599-42.425964 0l-84.851927-84.851927c-11.72599-11.72599-11.72599-30.701974 0-42.425963 11.72599-11.72599 30.701974-11.72599 42.425964 0L348.005921 633.312336c11.72399 11.72399 11.72399 30.699974 0 42.425963zM263.151994 760.590226c-11.72599 11.72599-30.701974 11.72599-42.425964 0l-84.851927-84.851927c-11.72599-11.72599-11.72599-30.701974 0-42.425963s30.701974-11.72599 42.425964 0l84.851927 84.851927c11.72599 11.72599 11.72599 30.701974 0 42.425963z" fill="#FEA832" p-id="11263"></path><path d="M548.629749 475.010472c-49.213958-2.545998-99.701914 14.847987-137.035883 52.183955L157.034085 781.752208l84.851927 84.851927 42.425964-42.425963 42.425963 42.425963c70.425939 70.425939 184.553841 70.00394 254.557781 0l84.851928-84.851927c70.00394-70.00394 70.425939-184.131842 0-254.557781-32.241972-32.245972-74.665936-50.063957-117.517899-52.183955z m32.667971 221.887809l-84.851927 84.851927c-23.33398 23.33398-61.517947 23.33398-84.851927 0l-42.425963-42.425963 127.27989-127.279891c23.33398-23.33398 61.517947-23.33398 84.851927 0 23.33198 23.33598 23.33198 61.519947-0.002 84.853927zM390.379885 463.554482L135.822103 718.112263c-11.71599 11.71599-30.709974 11.71599-42.425963 0-11.71599-11.71599-11.71599-30.709974 0-42.425964l254.557781-254.557781c11.71599-11.71599 30.709974-11.71599 42.425964 0 11.71599 11.71399 11.71599 30.709974 0 42.425964z" fill="#FEDB41" p-id="11264"></path><path d="M548.629749 475.010472L199.460049 824.178172l42.425963 42.425963 42.425964-42.425963 42.425963 42.425963c70.425939 70.425939 184.553841 70.00394 254.557781 0l84.851928-84.851927c70.00394-70.00394 70.425939-184.131842 0-254.557781-32.241972-32.245972-74.665936-50.063957-117.517899-52.183955z m32.667971 221.887809l-84.851927 84.851927c-23.33398 23.33398-61.517947 23.33398-84.851927 0l-42.425963-42.425963 127.27989-127.279891c23.33398-23.33398 61.517947-23.33398 84.851927 0 23.33198 23.33598 23.33198 61.519947-0.002 84.853927z" fill="#FFCC33" p-id="11265"></path></svg>