<?xml version="1.0" standalone="no"?><!DOCTYPE svg PUBLIC "-//W3C//DTD SVG 1.1//EN" "http://www.w3.org/Graphics/SVG/1.1/DTD/svg11.dtd"><svg t="1752928952153" class="icon" viewBox="0 0 1024 1024" version="1.1" xmlns="http://www.w3.org/2000/svg" p-id="2103" xmlns:xlink="http://www.w3.org/1999/xlink" width="32" height="32"><path d="M170.666667 955.733333H85.333333a17.066667 17.066667 0 0 1-17.066666-17.066666v-85.333334a17.066667 17.066667 0 0 1 17.066666-17.066666h25.275734C107.332267 586.888533 167.970133 399.274667 290.986667 278.408533 411.904 159.607467 595.080533 103.0144 836.266667 110.301867V85.333333a17.066667 17.066667 0 0 1 17.066666-17.066666h85.333334a17.066667 17.066667 0 0 1 17.066666 17.066666v85.333334a17.066667 17.066667 0 0 1-17.066666 17.066666h-85.333334a17.066667 17.066667 0 0 1-17.066666-17.066666V144.452267c-231.918933-7.031467-407.159467 46.114133-521.352534 158.293333C198.724267 416.9216 141.5168 596.343467 144.7424 836.266667H170.666667a17.066667 17.066667 0 0 1 17.066666 17.066666v85.333334a17.066667 17.066667 0 0 1-17.066666 17.066666z m-68.266667-34.133333h51.2v-51.2H102.4v51.2zM870.4 153.6h51.2V102.4h-51.2v51.2z" p-id="2104"></path></svg>