<?xml version="1.0" standalone="no"?><!DOCTYPE svg PUBLIC "-//W3C//DTD SVG 1.1//EN" "http://www.w3.org/Graphics/SVG/1.1/DTD/svg11.dtd"><svg t="1752910364791" class="icon" viewBox="0 0 1142 1024" version="1.1" xmlns="http://www.w3.org/2000/svg" p-id="13939" xmlns:xlink="http://www.w3.org/1999/xlink" width="35.6875" height="32"><path d="M1056.807385 606.877538c-45.764923 172.347077-204.563692 305.230769-402.195693 334.611693v59.234461h-165.415384v-59.234461c-197.592615-29.380923-356.391385-162.264615-402.116923-334.611693H16.541538v-165.415384h62.109539c30.562462-191.251692 198.104615-342.409846 410.505846-373.996308V8.270769h165.415385v59.234462c212.440615 31.586462 379.982769 182.744615 410.54523 373.996307h62.070154v165.415385h-70.419692z m-61.558154 0h-33.437539v-165.415384h43.323077c-29.892923-158.011077-170.417231-284.199385-350.523077-314.210462V173.686154h-165.415384V127.212308c-180.066462 30.011077-320.590769 156.199385-350.523077 314.210461h43.323077v165.415385h-33.398154c44.071385 139.264 175.773538 247.335385 340.598154 274.786461V835.347692h165.415384v46.355693c164.864-27.451077 296.566154-135.483077 340.637539-274.786462z m-466.668308-472.615384h86.646154v-86.646154h-86.646154v86.646154z m0 827.076923h86.646154v-86.646154h-86.646154v86.646154z m-472.615385-393.846154h86.646154v-86.646154h-86.646154v86.646154z m945.23077 0h86.646154v-86.646154h-86.646154v86.646154z" p-id="13940"></path></svg>