<?xml version="1.0" standalone="no"?><!DOCTYPE svg PUBLIC "-//W3C//DTD SVG 1.1//EN" "http://www.w3.org/Graphics/SVG/1.1/DTD/svg11.dtd"><svg t="1751973679048" class="icon" viewBox="0 0 1024 1024" version="1.1" xmlns="http://www.w3.org/2000/svg" p-id="4815" xmlns:xlink="http://www.w3.org/1999/xlink" width="32" height="32"><path d="M512 659.093333c32 0 211.306667-224.426667 211.306667-341.333333a211.306667 211.306667 0 0 0-422.613334 0c0 116.906667 179.306667 341.333333 211.306667 341.333333z m-136.64-341.333333a136.64 136.64 0 0 1 273.28 0c0 22.773333-17.866667 76.64-68.16 153.546667a814.826667 814.826667 0 0 1-68.48 90.666666 814.826667 814.826667 0 0 1-68.48-90.666666C393.226667 394.666667 375.36 340.746667 375.36 317.973333z" p-id="4816"></path><path d="M512 306.186667m-53.333333 0a53.333333 53.333333 0 1 0 106.666666 0 53.333333 53.333333 0 1 0-106.666666 0Z" p-id="4817"></path><path d="M771.466667 405.706667l33.333333 42.933333a5.333333 5.333333 0 0 0 7.573333 0.8l21.6-17.866667a5.333333 5.333333 0 0 1 8.693334 4.106667v268.96a5.333333 5.333333 0 0 1-2.4 4.48l-187.253334 122.186667a5.333333 5.333333 0 0 1-5.333333 0l-281.12-162.133334a5.333333 5.333333 0 0 0-5.333333 0l-171.626667 115.573334a5.333333 5.333333 0 0 1-8.266667-4.373334V510.72a5.333333 5.333333 0 0 1 1.866667-4.106667l69.333333-58.186666a5.333333 5.333333 0 0 0 0.96-7.04l-33.44-49.653334a5.333333 5.333333 0 0 0-7.466666-1.386666L108.96 462.72a5.333333 5.333333 0 0 0-2.293333 4.373333v440.533334a5.333333 5.333333 0 0 0 8.16 4.48L362.666667 753.76a5.333333 5.333333 0 0 1 5.333333 0l280.533333 162.133333a5.333333 5.333333 0 0 0 5.333334 0l260.533333-162.08a5.333333 5.333333 0 0 0 2.506667-4.48V309.333333a5.333333 5.333333 0 0 0-8.32-4.373333l-135.946667 93.12a5.333333 5.333333 0 0 0-1.173333 7.626667z" p-id="4818"></path></svg>